<svg xmlns:dc="http://purl.org/dc/elements/1.1/" xmlns:cc="http://creativecommons.org/ns#" xmlns:rdf="http://www.w3.org/1999/02/22-rdf-syntax-ns#" xmlns:svg="http://www.w3.org/2000/svg" xmlns="http://www.w3.org/2000/svg" xmlns:sodipodi="http://sodipodi.sourceforge.net/DTD/sodipodi-0.dtd" xmlns:inkscape="http://www.inkscape.org/namespaces/inkscape" version="1.1" x="0px" y="0px" viewBox="0 0 100 125"><g transform="translate(0,-952.36218)"><path style="font-size:medium;font-style:normal;font-variant:normal;font-weight:normal;font-stretch:normal;text-indent:0;text-align:start;text-decoration:none;line-height:normal;letter-spacing:normal;word-spacing:normal;text-transform:none;direction:ltr;block-progression:tb;writing-mode:lr-tb;text-anchor:start;baseline-shift:baseline;opacity:1;color:#000000;fill:#000000;fill-opacity:1;stroke:none;stroke-width:4;marker:none;visibility:visible;display:inline;overflow:visible;enable-background:accumulate;font-family:Sans;-inkscape-font-specification:Sans" d="M 34 16 C 22.356487 16 14.541086 26.29804 14 36.875 A 2.0002 2.0002 0 0 0 14 37 C 14 51.8038 22.934869 63.51525 31.65625 71.46875 C 40.377631 79.42215 49.09375 83.78125 49.09375 83.78125 A 2.0002 2.0002 0 0 0 50.90625 83.78125 C 50.90625 83.78125 59.622369 79.42215 68.34375 71.46875 C 77.065131 63.51525 86 51.8038 86 37 A 2.0002 2.0002 0 0 0 86 36.875 C 85.458914 26.29804 77.643513 16 66 16 C 58.69176 16 53.114212 19.70132 50 24.6875 C 46.885788 19.70132 41.30824 16 34 16 z M 34 20 C 41.41298 20 46.353669 24.40476 48.09375 29.625 A 2.0002 2.0002 0 0 0 51.90625 29.625 C 53.646331 24.40476 58.58702 20 66 20 C 75.231927 20 81.511652 28.26225 82 37 C 82.0012 37.0207 81.9989 37.0418 82 37.0625 C 81.999979 37.0731 82.000031 37.08315 82 37.09375 C 81.96108 50.2343 73.914832 60.9686 65.65625 68.5 C 58.103237 75.3879 51.26454 78.99875 50 79.65625 C 48.73546 78.99875 41.896763 75.3879 34.34375 68.5 C 26.085168 60.96865 18.03892 50.2343 18 37.09375 C 18.00053 37.08335 17.999454 37.0728 18 37.0625 C 17.999958 37.0412 18 37.0213 18 37 C 18.488348 28.26225 24.768073 20 34 20 z " transform="translate(0,952.36218)"/></g><text x="0" y="115" fill="#000000" font-size="5px" font-weight="bold" font-family="'Helvetica Neue', Helvetica, Arial-Unicode, Arial, Sans-serif">Created by amy morgan</text><text x="0" y="120" fill="#000000" font-size="5px" font-weight="bold" font-family="'Helvetica Neue', Helvetica, Arial-Unicode, Arial, Sans-serif">from the Noun Project</text></svg>